<svg width="94" height="79" viewBox="0 0 94 79" fill="none" xmlns="http://www.w3.org/2000/svg">
<path d="M57.976 57.3245V37.6769L45.8598 26.6396V57.3245H57.976Z" fill="white"/>
<path d="M80.9967 57.3245V35.8856L93.1127 26.6396V57.3245H80.9967Z" fill="white"/>
<path d="M45.8598 12.8865V0L68.8805 22.7681L93.1127 0V12.8865L68.8805 35.25L45.8598 12.8865Z" fill="white"/>
<path d="M39.4987 1.21362H8.90533V8.72592H30.1086V20.2833L39.4987 13.9267V1.21362Z" fill="white"/>
<path d="M39.4988 26.8132L30.8964 32.4763C31.6233 45.8828 28.6548 49.5234 19.2042 49.8123C11.6921 50.0435 8.0574 47.6742 6.1187 41.2599L0 44.4382C0.303 47.6164 1.6963 50.8525 5.2707 53.5107C8.8449 56.1689 13.6308 57.498 20.8399 57.2668C20.8399 57.2668 30.8358 56.7468 35.3187 51.6615C39.7411 46.5763 39.4988 42.0689 39.4988 39.1218V26.8132Z" fill="white"/>
<path d="M3.3493 77.9185V68.1185H10.6136V69.3365H4.8198V76.7005H10.8195V77.9185H3.3493ZM4.6875 73.5365V72.3465H9.9813V73.5365H4.6875ZM20.3177 78.0305C19.5334 78.0305 18.7835 77.9185 18.0679 77.6945C17.3523 77.4615 16.7885 77.1625 16.3768 76.7985L16.9209 75.7065C17.313 76.0335 17.813 76.3035 18.4208 76.5185C19.0286 76.7335 19.661 76.8405 20.3177 76.8405C20.9157 76.8405 21.401 76.7755 21.7735 76.6445C22.1461 76.5135 22.4206 76.3365 22.597 76.1125C22.7735 75.8795 22.8617 75.6175 22.8617 75.3285C22.8617 74.9925 22.7441 74.7215 22.5088 74.5165C22.2833 74.3115 21.9844 74.1475 21.6118 74.0265C21.2491 73.8955 20.8471 73.7835 20.406 73.6905C19.9648 73.5975 19.5187 73.4895 19.0678 73.3685C18.6267 73.2375 18.2199 73.0745 17.8473 72.8785C17.4846 72.6825 17.1905 72.4215 16.965 72.0945C16.7395 71.7585 16.6268 71.3295 16.6268 70.8065C16.6268 70.3025 16.7641 69.8405 17.0385 69.4205C17.3229 68.9915 17.7541 68.6505 18.3326 68.3985C18.9208 68.1375 19.6658 68.0065 20.5677 68.0065C21.1657 68.0065 21.7588 68.0815 22.347 68.2305C22.9352 68.3795 23.445 68.5945 23.8764 68.8745L23.3911 69.9945C22.95 69.7145 22.4843 69.5135 21.9941 69.3925C21.5039 69.2615 21.0285 69.1965 20.5677 69.1965C19.9893 69.1965 19.5139 69.2665 19.1413 69.4065C18.7688 69.5465 18.4943 69.7335 18.3179 69.9665C18.1512 70.1995 18.0679 70.4615 18.0679 70.7505C18.0679 71.0955 18.1806 71.3715 18.4061 71.5765C18.6414 71.7815 18.9404 71.9455 19.3031 72.0665C19.6757 72.1875 20.0825 72.2995 20.5236 72.4025C20.9648 72.4955 21.4059 72.6035 21.8471 72.7245C22.298 72.8455 22.7049 73.0045 23.0676 73.2005C23.4402 73.3965 23.7391 73.6575 23.9646 73.9845C24.1901 74.3115 24.3028 74.7315 24.3028 75.2445C24.3028 75.7395 24.1607 76.2015 23.8764 76.6305C23.592 77.0505 23.1509 77.3915 22.5529 77.6525C21.9647 77.9045 21.2197 78.0305 20.3177 78.0305ZM32.4689 77.9185V69.3365H28.9397V68.1185H37.4539V69.3365H33.9247V77.9185H32.4689ZM47.2508 78.0305C45.8979 78.0305 44.8342 77.6615 44.0598 76.9245C43.2852 76.1875 42.8981 75.1095 42.8981 73.6905V68.1185H44.3686V73.6345C44.3686 74.7265 44.6186 75.5245 45.1185 76.0285C45.6283 76.5325 46.3439 76.7845 47.2655 76.7845C48.1967 76.7845 48.9124 76.5325 49.4124 76.0285C49.9221 75.5245 50.1771 74.7265 50.1771 73.6345V68.1185H51.6034V73.6905C51.6034 75.1095 51.2162 76.1875 50.4418 76.9245C49.6771 77.6615 48.6134 78.0305 47.2508 78.0305ZM58.7356 77.9185V68.1185H63.0736C64.1715 68.1185 65.1372 68.3235 65.9705 68.7345C66.8136 69.1455 67.4655 69.7195 67.9263 70.4565C68.3968 71.1935 68.6321 72.0475 68.6321 73.0185C68.6321 73.9895 68.3968 74.8435 67.9263 75.5805C67.4655 76.3175 66.8136 76.8915 65.9705 77.3025C65.1372 77.7135 64.1715 77.9185 63.0736 77.9185H58.7356ZM60.2061 76.7005H62.9854C63.8383 76.7005 64.5735 76.5465 65.1911 76.2385C65.8185 75.9305 66.3038 75.5015 66.6469 74.9505C66.9901 74.3905 67.1616 73.7465 67.1616 73.0185C67.1616 72.2815 66.9901 71.6375 66.6469 71.0865C66.3038 70.5355 65.8185 70.1065 65.1911 69.7985C64.5735 69.4905 63.8383 69.3365 62.9854 69.3365H60.2061V76.7005ZM75.0019 77.9185V68.1185H76.4727V77.9185H75.0019ZM88.3187 78.0305C87.5337 78.0305 86.8037 77.9045 86.1277 77.6525C85.4607 77.4005 84.8817 77.0505 84.3927 76.6025C83.9017 76.1455 83.5197 75.6135 83.2457 75.0065C82.9707 74.3995 82.8337 73.7375 82.8337 73.0185C82.8337 72.2995 82.9707 71.6375 83.2457 71.0305C83.5197 70.4235 83.9017 69.8965 84.3927 69.4485C84.8817 68.9915 85.4607 68.6365 86.1277 68.3845C86.7937 68.1325 87.5247 68.0065 88.3187 68.0065C89.1027 68.0065 89.8227 68.1325 90.4807 68.3845C91.1467 68.6275 91.7247 68.9775 92.2157 69.4345C92.7157 69.8825 93.0977 70.4095 93.3627 71.0165C93.6367 71.6235 93.7747 72.2905 93.7747 73.0185C93.7747 73.7465 93.6367 74.4135 93.3627 75.0205C93.0977 75.6275 92.7157 76.1595 92.2157 76.6165C91.7247 77.0645 91.1467 77.4145 90.4807 77.6665C89.8227 77.9095 89.1027 78.0305 88.3187 78.0305ZM88.3187 76.7845C88.8867 76.7845 89.4107 76.6915 89.8917 76.5045C90.3817 76.3175 90.8037 76.0565 91.1567 75.7205C91.5187 75.3755 91.7987 74.9735 91.9947 74.5165C92.2007 74.0595 92.3037 73.5595 92.3037 73.0185C92.3037 72.4775 92.2007 71.9775 91.9947 71.5205C91.7987 71.0635 91.5187 70.6665 91.1567 70.3305C90.8037 69.9855 90.3817 69.7195 89.8917 69.5325C89.4107 69.3455 88.8867 69.2525 88.3187 69.2525C87.7397 69.2525 87.2057 69.3455 86.7157 69.5325C86.2347 69.7195 85.8137 69.9855 85.4507 70.3305C85.0877 70.6665 84.8037 71.0635 84.5987 71.5205C84.4017 71.9775 84.3037 72.4775 84.3037 73.0185C84.3037 73.5595 84.4017 74.0595 84.5987 74.5165C84.8037 74.9735 85.0877 75.3755 85.4507 75.7205C85.8137 76.0565 86.2347 76.3175 86.7157 76.5045C87.2057 76.6915 87.7397 76.7845 88.3187 76.7845Z" fill="white"/>
</svg>
