<svg width="343" height="303" viewBox="0 0 343 303" fill="none" xmlns="http://www.w3.org/2000/svg">
<path d="M192.137 205.022V162.8L163.672 139.082V205.022H192.137Z" fill="black"/>
<path d="M246.22 205.022V158.951L274.685 139.082V205.022H246.22Z" fill="black"/>
<path d="M163.672 109.527V81.835L217.755 130.762L274.685 81.835V109.527L217.755 157.585L163.672 109.527Z" fill="black"/>
<path d="M148.728 84.4426H76.8548V100.586H126.668V125.422L148.728 111.762V84.4426Z" fill="black"/>
<path d="M148.728 139.455L128.518 151.624C130.226 180.434 123.252 188.257 101.05 188.878C83.4016 189.375 74.8622 184.284 70.3079 170.5L55.9332 177.33C56.6448 184.16 59.9182 191.114 68.3153 196.826C76.7124 202.538 87.956 205.394 104.892 204.898C104.892 204.898 128.376 203.78 138.908 192.852C149.297 181.924 148.728 172.238 148.728 165.905V139.455Z" fill="black"/>
<path d="M71.5869 245.876H85.2669V249.106H71.5869V245.876ZM71.9289 257.694H87.4329V261H68.1289V234.4H86.9009V237.706H71.9289V257.694ZM109.97 261.228C108.298 261.228 106.702 261 105.182 260.544C103.687 260.088 102.509 259.531 101.648 258.872L103.168 255.984C104.029 256.567 105.093 257.061 106.36 257.466C107.627 257.871 108.919 258.074 110.236 258.074C111.933 258.074 113.149 257.833 113.884 257.352C114.644 256.871 115.024 256.199 115.024 255.338C115.024 254.705 114.796 254.211 114.34 253.856C113.884 253.501 113.276 253.235 112.516 253.058C111.781 252.881 110.958 252.729 110.046 252.602C109.134 252.45 108.222 252.273 107.31 252.07C106.398 251.842 105.562 251.538 104.802 251.158C104.042 250.753 103.434 250.208 102.978 249.524C102.522 248.815 102.294 247.877 102.294 246.712C102.294 245.496 102.636 244.432 103.32 243.52C104.004 242.608 104.967 241.911 106.208 241.43C107.475 240.923 108.969 240.67 110.692 240.67C112.009 240.67 113.339 240.835 114.682 241.164C116.05 241.468 117.165 241.911 118.026 242.494L116.468 245.382C115.556 244.774 114.606 244.356 113.618 244.128C112.63 243.9 111.642 243.786 110.654 243.786C109.058 243.786 107.867 244.052 107.082 244.584C106.297 245.091 105.904 245.749 105.904 246.56C105.904 247.244 106.132 247.776 106.588 248.156C107.069 248.511 107.677 248.789 108.412 248.992C109.172 249.195 110.008 249.372 110.92 249.524C111.832 249.651 112.744 249.828 113.656 250.056C114.568 250.259 115.391 250.55 116.126 250.93C116.886 251.31 117.494 251.842 117.95 252.526C118.431 253.21 118.672 254.122 118.672 255.262C118.672 256.478 118.317 257.529 117.608 258.416C116.899 259.303 115.898 259.999 114.606 260.506C113.314 260.987 111.769 261.228 109.97 261.228ZM141.547 261.228C139.521 261.228 137.95 260.683 136.835 259.594C135.721 258.505 135.163 256.947 135.163 254.92V236.452H138.811V254.768C138.811 255.857 139.077 256.693 139.609 257.276C140.167 257.859 140.952 258.15 141.965 258.15C143.105 258.15 144.055 257.833 144.815 257.2L145.955 259.822C145.398 260.303 144.727 260.658 143.941 260.886C143.181 261.114 142.383 261.228 141.547 261.228ZM131.743 243.862V240.86H144.587V243.862H131.743ZM170.24 261.228C168.517 261.228 166.997 260.911 165.68 260.278C164.388 259.645 163.374 258.682 162.64 257.39C161.93 256.073 161.576 254.426 161.576 252.45V240.86H165.224V252.032C165.224 254.008 165.692 255.49 166.63 256.478C167.592 257.466 168.935 257.96 170.658 257.96C171.924 257.96 173.026 257.707 173.964 257.2C174.901 256.668 175.623 255.908 176.13 254.92C176.636 253.907 176.89 252.691 176.89 251.272V240.86H180.538V261H177.08V255.566L177.65 257.01C176.991 258.353 176.003 259.391 174.686 260.126C173.368 260.861 171.886 261.228 170.24 261.228ZM207.204 261.228C205.254 261.228 203.506 260.797 201.96 259.936C200.44 259.075 199.237 257.871 198.35 256.326C197.464 254.781 197.02 252.982 197.02 250.93C197.02 248.878 197.464 247.092 198.35 245.572C199.237 244.027 200.44 242.823 201.96 241.962C203.506 241.101 205.254 240.67 207.204 240.67C208.902 240.67 210.434 241.05 211.802 241.81C213.17 242.57 214.26 243.71 215.07 245.23C215.906 246.75 216.324 248.65 216.324 250.93C216.324 253.21 215.919 255.11 215.108 256.63C214.323 258.15 213.246 259.303 211.878 260.088C210.51 260.848 208.952 261.228 207.204 261.228ZM207.508 258.036C208.775 258.036 209.915 257.745 210.928 257.162C211.967 256.579 212.778 255.756 213.36 254.692C213.968 253.603 214.272 252.349 214.272 250.93C214.272 249.486 213.968 248.245 213.36 247.206C212.778 246.142 211.967 245.319 210.928 244.736C209.915 244.153 208.775 243.862 207.508 243.862C206.216 243.862 205.064 244.153 204.05 244.736C203.037 245.319 202.226 246.142 201.618 247.206C201.01 248.245 200.706 249.486 200.706 250.93C200.706 252.349 201.01 253.603 201.618 254.692C202.226 255.756 203.037 256.579 204.05 257.162C205.064 257.745 206.216 258.036 207.508 258.036ZM214.386 261V255.566L214.614 250.892L214.234 246.218V232.804H217.882V261H214.386ZM236.185 261V240.86H239.833V261H236.185ZM238.009 236.984C237.299 236.984 236.704 236.756 236.223 236.3C235.767 235.844 235.539 235.287 235.539 234.628C235.539 233.944 235.767 233.374 236.223 232.918C236.704 232.462 237.299 232.234 238.009 232.234C238.718 232.234 239.301 232.462 239.757 232.918C240.238 233.349 240.479 233.893 240.479 234.552C240.479 235.236 240.251 235.819 239.795 236.3C239.339 236.756 238.743 236.984 238.009 236.984ZM266.824 261.228C264.797 261.228 262.999 260.785 261.428 259.898C259.857 259.011 258.616 257.795 257.704 256.25C256.792 254.679 256.336 252.906 256.336 250.93C256.336 248.929 256.792 247.155 257.704 245.61C258.616 244.065 259.857 242.861 261.428 242C262.999 241.113 264.797 240.67 266.824 240.67C268.825 240.67 270.611 241.113 272.182 242C273.778 242.861 275.019 244.065 275.906 245.61C276.818 247.13 277.274 248.903 277.274 250.93C277.274 252.931 276.818 254.705 275.906 256.25C275.019 257.795 273.778 259.011 272.182 259.898C270.611 260.785 268.825 261.228 266.824 261.228ZM266.824 258.036C268.116 258.036 269.269 257.745 270.282 257.162C271.321 256.579 272.131 255.756 272.714 254.692C273.297 253.603 273.588 252.349 273.588 250.93C273.588 249.486 273.297 248.245 272.714 247.206C272.131 246.142 271.321 245.319 270.282 244.736C269.269 244.153 268.116 243.862 266.824 243.862C265.532 243.862 264.379 244.153 263.366 244.736C262.353 245.319 261.542 246.142 260.934 247.206C260.326 248.245 260.022 249.486 260.022 250.93C260.022 252.349 260.326 253.603 260.934 254.692C261.542 255.756 262.353 256.579 263.366 257.162C264.379 257.745 265.532 258.036 266.824 258.036Z" fill="black"/>
</svg>
