<svg width="114" height="104" viewBox="0 0 114 104" fill="none" xmlns="http://www.w3.org/2000/svg">
<path d="M70.7359 72V47.3226L56.162 33.4597V72H70.7359Z" fill="white"/>
<path d="M98.4261 72V45.0726L113 33.4597V72H98.4261Z" fill="white"/>
<path d="M56.162 16.1855V0L83.8523 28.5968L113 0V16.1855L83.8523 44.2742L56.162 16.1855Z" fill="white"/>
<path d="M48.5107 1.52417H11.7118V10.9597H37.216V25.4758L48.5107 17.4919V1.52417Z" fill="white"/>
<path d="M48.5107 33.6774L38.1633 40.7903C39.0377 57.629 35.4671 62.2016 24.0995 62.5645C15.0638 62.8548 10.6916 59.879 8.35979 51.8225L1 55.8145C1.36435 59.8064 3.04034 63.8709 7.33962 67.2096C11.6389 70.5483 17.3956 72.2177 26.067 71.9274C26.067 71.9274 38.0904 71.2741 43.4828 64.8871C48.8022 58.5 48.5107 52.8387 48.5107 49.1371V33.6774Z" fill="white"/>
<path d="M3.79414 99V85H13.6741V86.74H5.79414V97.26H13.9541V99H3.79414ZM5.61414 92.74V91.04H12.8141V92.74H5.61414ZM25.4159 99.12C24.5359 99.12 23.6959 99 22.8959 98.76C22.1092 98.52 21.4892 98.2267 21.0359 97.88L21.8359 96.36C22.2892 96.6667 22.8492 96.9267 23.5159 97.14C24.1825 97.3533 24.8625 97.46 25.5559 97.46C26.4492 97.46 27.0892 97.3333 27.4759 97.08C27.8759 96.8267 28.0759 96.4733 28.0759 96.02C28.0759 95.6867 27.9559 95.4267 27.7159 95.24C27.4759 95.0533 27.1559 94.9133 26.7559 94.82C26.3692 94.7267 25.9359 94.6467 25.4559 94.58C24.9759 94.5 24.4959 94.4067 24.0159 94.3C23.5359 94.18 23.0959 94.02 22.6959 93.82C22.2959 93.6067 21.9759 93.32 21.7359 92.96C21.4959 92.5867 21.3759 92.0933 21.3759 91.48C21.3759 90.84 21.5559 90.28 21.9159 89.8C22.2759 89.32 22.7825 88.9533 23.4359 88.7C24.1025 88.4333 24.8892 88.3 25.7959 88.3C26.4892 88.3 27.1892 88.3867 27.8959 88.56C28.6159 88.72 29.2025 88.9533 29.6559 89.26L28.8359 90.78C28.3559 90.46 27.8559 90.24 27.3359 90.12C26.8159 90 26.2959 89.94 25.7759 89.94C24.9359 89.94 24.3092 90.08 23.8959 90.36C23.4825 90.6267 23.2759 90.9733 23.2759 91.4C23.2759 91.76 23.3959 92.04 23.6359 92.24C23.8892 92.4267 24.2092 92.5733 24.5959 92.68C24.9959 92.7867 25.4359 92.88 25.9159 92.96C26.3959 93.0267 26.8759 93.12 27.3559 93.24C27.8359 93.3467 28.2692 93.5 28.6559 93.7C29.0559 93.9 29.3759 94.18 29.6159 94.54C29.8692 94.9 29.9959 95.38 29.9959 95.98C29.9959 96.62 29.8092 97.1733 29.4359 97.64C29.0625 98.1067 28.5359 98.4733 27.8559 98.74C27.1759 98.9933 26.3625 99.12 25.4159 99.12ZM41.6354 99.12C40.5687 99.12 39.7421 98.8333 39.1554 98.26C38.5687 97.6867 38.2754 96.8667 38.2754 95.8V86.08H40.1954V95.72C40.1954 96.2933 40.3354 96.7333 40.6154 97.04C40.9087 97.3467 41.3221 97.5 41.8554 97.5C42.4554 97.5 42.9554 97.3333 43.3554 97L43.9554 98.38C43.6621 98.6333 43.3087 98.82 42.8954 98.94C42.4954 99.06 42.0754 99.12 41.6354 99.12ZM36.4754 89.98V88.4H43.2354V89.98H36.4754ZM56.3366 99.12C55.43 99.12 54.63 98.9533 53.9366 98.62C53.2566 98.2867 52.7233 97.78 52.3366 97.1C51.9633 96.4067 51.7766 95.54 51.7766 94.5V88.4H53.6966V94.28C53.6966 95.32 53.9433 96.1 54.4366 96.62C54.9433 97.14 55.65 97.4 56.5566 97.4C57.2233 97.4 57.8033 97.2667 58.2966 97C58.79 96.72 59.17 96.32 59.4366 95.8C59.7033 95.2667 59.8366 94.6267 59.8366 93.88V88.4H61.7566V99H59.9366V96.14L60.2366 96.9C59.89 97.6067 59.37 98.1533 58.6766 98.54C57.9833 98.9267 57.2033 99.12 56.3366 99.12ZM75.3918 99.12C74.3651 99.12 73.4451 98.8933 72.6318 98.44C71.8318 97.9867 71.1985 97.3533 70.7318 96.54C70.2651 95.7267 70.0318 94.78 70.0318 93.7C70.0318 92.62 70.2651 91.68 70.7318 90.88C71.1985 90.0667 71.8318 89.4333 72.6318 88.98C73.4451 88.5267 74.3651 88.3 75.3918 88.3C76.2851 88.3 77.0918 88.5 77.8118 88.9C78.5318 89.3 79.1051 89.9 79.5318 90.7C79.9718 91.5 80.1918 92.5 80.1918 93.7C80.1918 94.9 79.9785 95.9 79.5518 96.7C79.1385 97.5 78.5718 98.1067 77.8518 98.52C77.1318 98.92 76.3118 99.12 75.3918 99.12ZM75.5518 97.44C76.2185 97.44 76.8185 97.2867 77.3518 96.98C77.8985 96.6733 78.3251 96.24 78.6318 95.68C78.9518 95.1067 79.1118 94.4467 79.1118 93.7C79.1118 92.94 78.9518 92.2867 78.6318 91.74C78.3251 91.18 77.8985 90.7467 77.3518 90.44C76.8185 90.1333 76.2185 89.98 75.5518 89.98C74.8718 89.98 74.2651 90.1333 73.7318 90.44C73.1985 90.7467 72.7718 91.18 72.4518 91.74C72.1318 92.2867 71.9718 92.94 71.9718 93.7C71.9718 94.4467 72.1318 95.1067 72.4518 95.68C72.7718 96.24 73.1985 96.6733 73.7318 96.98C74.2651 97.2867 74.8718 97.44 75.5518 97.44ZM79.1718 99V96.14L79.2918 93.68L79.0918 91.22V84.16H81.0118V99H79.1718ZM90.2446 99V88.4H92.1646V99H90.2446ZM91.2046 86.36C90.8313 86.36 90.5179 86.24 90.2646 86C90.0246 85.76 89.9046 85.4667 89.9046 85.12C89.9046 84.76 90.0246 84.46 90.2646 84.22C90.5179 83.98 90.8313 83.86 91.2046 83.86C91.5779 83.86 91.8846 83.98 92.1246 84.22C92.3779 84.4467 92.5046 84.7333 92.5046 85.08C92.5046 85.44 92.3846 85.7467 92.1446 86C91.9046 86.24 91.5913 86.36 91.2046 86.36ZM105.971 99.12C104.904 99.12 103.957 98.8867 103.131 98.42C102.304 97.9533 101.651 97.3133 101.171 96.5C100.691 95.6733 100.451 94.74 100.451 93.7C100.451 92.6467 100.691 91.7133 101.171 90.9C101.651 90.0867 102.304 89.4533 103.131 89C103.957 88.5333 104.904 88.3 105.971 88.3C107.024 88.3 107.964 88.5333 108.791 89C109.631 89.4533 110.284 90.0867 110.751 90.9C111.231 91.7 111.471 92.6333 111.471 93.7C111.471 94.7533 111.231 95.6867 110.751 96.5C110.284 97.3133 109.631 97.9533 108.791 98.42C107.964 98.8867 107.024 99.12 105.971 99.12ZM105.971 97.44C106.651 97.44 107.257 97.2867 107.791 96.98C108.337 96.6733 108.764 96.24 109.071 95.68C109.377 95.1067 109.531 94.4467 109.531 93.7C109.531 92.94 109.377 92.2867 109.071 91.74C108.764 91.18 108.337 90.7467 107.791 90.44C107.257 90.1333 106.651 89.98 105.971 89.98C105.291 89.98 104.684 90.1333 104.151 90.44C103.617 90.7467 103.191 91.18 102.871 91.74C102.551 92.2867 102.391 92.94 102.391 93.7C102.391 94.4467 102.551 95.1067 102.871 95.68C103.191 96.24 103.617 96.6733 104.151 96.98C104.684 97.2867 105.291 97.44 105.971 97.44Z" fill="white"/>
</svg>
